<svg width="512" height="512" viewBox="0 0 512 512" fill="none" xmlns="http://www.w3.org/2000/svg">
  <!-- Background -->
  <rect width="512" height="512" rx="100" fill="#3b82f6"/>
  
  <!-- GitHub Logo Style -->
  <circle cx="256" cy="200" r="80" fill="white" opacity="0.9"/>
  
  <!-- Folder Icon -->
  <path d="M140 280 L140 420 C140 430 145 435 155 435 L357 435 C367 435 372 430 372 420 L372 310 C372 300 367 295 357 295 L220 295 L200 280 Z" fill="white" opacity="0.9"/>
  <path d="M140 260 L200 260 L220 275 L357 275 C367 275 372 280 372 290 L372 310 L140 310 Z" fill="white"/>
  
  <!-- Connection Lines -->
  <line x1="256" y1="280" x2="256" y2="240" stroke="white" stroke-width="8" opacity="0.7"/>
  <circle cx="256" cy="240" r="6" fill="white"/>
</svg>
